<?xml version="1.0" encoding="utf-8"?>
<svg xmlns="http://www.w3.org/2000/svg" style="margin: auto; background: none; display: block; shape-rendering: auto;" width="279" height="79" preserveAspectRatio="xMidYMid">
<style type="text/css">
  text {
    text-anchor: middle; font-size: 69px; opacity: 0;
  }
</style>
<g style="transform-origin: 139.5px 39.5px; transform: scale(0.8625);">
<g transform="translate(139.5,39.5)">
  <g transform="translate(0,0)"><g class="path" style="opacity: 1; transform-origin: -121.2px -0.0676022px; animation: 1s linear -0.5775s infinite normal forwards running blink-e3abcb22-0e74-4459-ae39-8938016bdc75;"><path d="M16.80-10.88L16.80-10.88L16.80-10.88Q16.80 1.12 24.56 4.96L24.56 4.96L24.56 4.96Q26.48 5.20 29.64 5.20L29.64 5.20L29.64 5.20Q32.80 5.20 36.32 4L36.32 4L36.32 4Q39.84 2.80 41.76 1.04L41.76 1.04L41.76 1.04Q45.84-2.72 46.88-5.44L46.88-5.44L47.28-6.64L48.88-6L48.88-6Q48.32-4.16 46.72-1.76L46.72-1.76L46.72-1.76Q45.12 0.64 43.08 2.32L43.08 2.32L43.08 2.32Q41.04 4 37.16 5.40L37.16 5.40L37.16 5.40Q33.28 6.80 28.56 6.80L28.56 6.80L28.56 6.80Q18.48 6.80 12.92 0.96L12.92 0.96L12.92 0.96Q7.36-4.88 7.36-15.52L7.36-15.52L7.36-15.52Q7.36-30 16.72-39.36L16.72-39.36L16.72-39.36Q26.08-48.72 41.28-48.72L41.28-48.72L41.28-48.72Q48.32-48.72 51.44-46.20L51.44-46.20L51.44-46.20Q54.56-43.68 54.56-38.32L54.56-38.32L54.56-38.32Q54.56-34.72 51.04-29.44L51.04-29.44L51.04-29.44Q47.84-24.32 47.84-21.44L47.84-21.44L46.08-21.44L46.08-21.44Q46.08-23.04 46.72-24.88L46.72-24.88L46.72-24.88Q47.36-26.72 47.84-27.52L47.84-27.52L47.84-27.52Q48.32-28.32 49.60-30.40L49.60-30.40L49.60-30.40Q52.72-35.12 52.72-38.16L52.72-38.16L52.72-38.16Q52.72-44.56 47.44-46.24L47.44-46.24L47.44-46.24Q44.96-47.04 42.24-47.04L42.24-47.04L42.24-47.04Q39.52-47.04 36.48-46.72L36.48-46.72L36.48-46.72Q33.68-45.84 31.16-44.44L31.16-44.44L31.16-44.44Q28.64-43.04 25.92-40.20L25.92-40.20L25.92-40.20Q23.20-37.36 21.28-33.60L21.28-33.60L21.28-33.60Q19.36-29.84 18.08-23.96L18.08-23.96L18.08-23.96Q16.80-18.08 16.80-10.88" fill="#182731" stroke="none" stroke-width="none" transform="translate(-152.16000366210938,20.892399101257325)" style="fill: rgb(24, 39, 49);"></path></g><g class="path" style="opacity: 1; transform-origin: -78.64px 5.6924px; animation: 1s linear -0.495s infinite normal forwards running blink-e3abcb22-0e74-4459-ae39-8938016bdc75;"><path d="M84.48 0.72L84.48 0.72L84.48 0.72Q77.44 0.72 76.80-5.44L76.80-5.44L76.80-5.44Q73.28 0.72 67.92 0.72L67.92 0.72L67.92 0.72Q62.56 0.72 59.40-2.52L59.40-2.52L59.40-2.52Q56.24-5.76 56.24-11.60L56.24-11.60L56.24-11.60Q56.24-20.72 60.72-25.92L60.72-25.92L60.72-25.92Q65.20-31.12 72.32-31.12L72.32-31.12L72.32-31.12Q78.16-31.12 80.08-25.60L80.08-25.60L80.08-25.60Q80.48-28 80.96-30.40L80.96-30.40L80.96-30.40Q86.88-30.40 89.76-30.88L89.76-30.88L90.80-31.12L85.28-0.88L85.28-0.88Q87.68-1.12 89.28-3.12L89.28-3.12L90.48-2.16L90.48-2.16Q88.08 0.72 84.48 0.72zM65.28-7.52L65.28-7.52Q65.28-3.92 66.20-2.52L66.20-2.52L66.20-2.52Q67.12-1.12 69.04-1.12L69.04-1.12L69.04-1.12Q70.96-1.12 72.96-3.20L72.96-3.20L72.96-3.20Q75.60-5.92 77.20-10.08L77.20-10.08L77.20-10.08Q77.44-11.12 78.12-15.08L78.12-15.08L78.12-15.08Q78.80-19.04 79.28-21.60L79.28-21.60L79.28-21.60Q79.04-24.64 77.60-26.88L77.60-26.88L77.60-26.88Q76.16-29.12 74-29.12L74-29.12L74-29.12Q70.08-29.12 67.68-22.12L67.68-22.12L67.68-22.12Q65.28-15.12 65.28-7.52L65.28-7.52" fill="#182731" stroke="none" stroke-width="none" transform="translate(-152.16000366210938,20.892399101257325)" style="fill: rgb(24, 39, 49);"></path></g><g class="path" style="opacity: 1; transform-origin: -42.16px 5.3324px; animation: 1s linear -0.4125s infinite normal forwards running blink-e3abcb22-0e74-4459-ae39-8938016bdc75;"><path d="M96.64-27.28L95.44-28.24L95.44-28.24Q97.84-31.12 101.48-31.12L101.48-31.12L101.48-31.12Q105.12-31.12 107.12-29.28L107.12-29.28L107.12-29.28Q109.12-27.44 109.12-24.08L109.12-24.08L109.12-23.60L109.12-23.60Q112.72-31.12 118.48-31.12L118.48-31.12L118.48-31.12Q124.64-31.12 124.64-24.72L124.64-24.72L124.64-24.72Q124.64-22.08 122.88-19.12L122.88-19.12L122.88-19.12Q121.12-16.16 119.36-13.48L119.36-13.48L119.36-13.48Q117.60-10.80 117.60-8.72L117.60-8.72L115.68-8.72L115.68-8.72Q115.68-11.68 119.12-16.72L119.12-16.72L119.12-16.72Q122.56-21.76 122.56-24.52L122.56-24.52L122.56-24.52Q122.56-27.28 121.48-28.28L121.48-28.28L121.48-28.28Q120.40-29.28 118.28-29.28L118.28-29.28L118.28-29.28Q116.16-29.28 114.12-27.44L114.12-27.44L114.12-27.44Q112.08-25.60 110.72-22.80L110.72-22.80L110.72-22.80Q108.56-18.64 107.84-16L107.84-16L107.84-15.92L104.96 0L95.36 0L100.64-29.52L100.64-29.52Q98.24-29.28 96.64-27.28L96.64-27.28" fill="#182731" stroke="none" stroke-width="none" transform="translate(-152.16000366210938,20.892399101257325)" style="fill: rgb(24, 39, 49);"></path></g><g class="path" style="opacity: 1; transform-origin: -9.68001px 12.6924px; animation: 1s linear -0.33s infinite normal forwards running blink-e3abcb22-0e74-4459-ae39-8938016bdc75;"><path d="M152.64 8.72L152.64 8.72L152.64 8.72Q155.52 8.72 157.60 6.48L157.60 6.48L158.72 7.44L158.72 7.44Q156.80 10.16 152.64 10.16L152.64 10.16L152.64 10.16Q150.88 10.16 149.04 9.76L149.04 9.76L149.04 9.76Q143.60 14.72 135.12 14.72L135.12 14.72L135.12 14.72Q130.08 14.72 127.32 13L127.32 13L127.32 13Q124.56 11.28 124.56 8.52L124.56 8.52L124.56 8.52Q124.56 5.76 126.28 4.12L126.28 4.12L126.28 4.12Q128 2.48 132.40 2.48L132.40 2.48L132.40 2.48Q136.80 2.48 144 6.08L144 6.08L146.48-7.20L146.48-7.20Q142.88-0.56 137.20-0.56L137.20-0.56L137.20-0.56Q126.32-0.56 126.32-11.28L126.32-11.28L126.32-11.28Q126.32-20.24 130.84-25.68L130.84-25.68L130.84-25.68Q135.36-31.12 142.40-31.12L142.40-31.12L142.40-31.12Q146.48-31.12 148.72-28.64L148.72-28.64L148.72-28.64Q149.36-27.92 150-26.48L150-26.48L150.72-30.40L150.72-30.40Q156.64-30.40 159.36-30.88L159.36-30.88L160.40-31.12L155.12-1.60L155.12-1.60Q153.92 4.64 150.32 8.48L150.32 8.48L150.32 8.48Q151.36 8.72 152.64 8.72zM135.36-8.80L135.36-8.80Q135.36-5.12 136.08-3.88L136.08-3.88L136.08-3.88Q136.80-2.64 138.80-2.64L138.80-2.64L138.80-2.64Q140.80-2.64 142.88-4.80L142.88-4.80L142.88-4.80Q144.96-6.96 145.88-8.84L145.88-8.84L145.88-8.84Q146.80-10.72 147.44-12.48L147.44-12.48L149.12-21.68L149.12-22.24L149.12-22.24Q149.12-29.60 142.40-29.60L142.40-29.60L142.40-29.60Q139.84-29.60 137.60-22.64L137.60-22.64L137.60-22.64Q135.36-15.68 135.36-8.80L135.36-8.80zM134.80 13.12L134.80 13.12L134.80 13.12Q141.20 13.12 143.44 7.60L143.44 7.60L142.32 7.04L142.32 7.04Q141.36 6.56 141.16 6.44L141.16 6.44L141.16 6.44Q140.96 6.32 140.08 5.92L140.08 5.92L140.08 5.92Q139.20 5.52 138.80 5.40L138.80 5.40L138.80 5.40Q138.40 5.28 137.56 4.96L137.56 4.96L137.56 4.96Q136.72 4.64 136.16 4.52L136.16 4.52L136.16 4.52Q135.60 4.40 134.88 4.24L134.88 4.24L134.88 4.24Q133.68 4 131.36 4L131.36 4L131.36 4Q129.04 4 127.64 5.12L127.64 5.12L127.64 5.12Q126.24 6.24 126.24 8.40L126.24 8.40L126.24 8.40Q126.24 10.56 128.56 11.84L128.56 11.84L128.56 11.84Q130.88 13.12 134.80 13.12" fill="#182731" stroke="none" stroke-width="none" transform="translate(-152.16000366210938,20.892399101257325)" style="fill: rgb(24, 39, 49);"></path></g><g class="path" style="opacity: 1; transform-origin: 28.64px 5.6924px; animation: 1s linear -0.2475s infinite normal forwards running blink-e3abcb22-0e74-4459-ae39-8938016bdc75;"><path d="M191.76 0.72L191.76 0.72L191.76 0.72Q184.72 0.72 184.08-5.44L184.08-5.44L184.08-5.44Q180.56 0.72 175.20 0.72L175.20 0.72L175.20 0.72Q169.84 0.72 166.68-2.52L166.68-2.52L166.68-2.52Q163.52-5.76 163.52-11.60L163.52-11.60L163.52-11.60Q163.52-20.72 168-25.92L168-25.92L168-25.92Q172.48-31.12 179.60-31.12L179.60-31.12L179.60-31.12Q185.44-31.12 187.36-25.60L187.36-25.60L187.36-25.60Q187.76-28 188.24-30.40L188.24-30.40L188.24-30.40Q194.16-30.40 197.04-30.88L197.04-30.88L198.08-31.12L192.56-0.88L192.56-0.88Q194.96-1.12 196.56-3.12L196.56-3.12L197.76-2.16L197.76-2.16Q195.36 0.72 191.76 0.72zM172.56-7.52L172.56-7.52Q172.56-3.92 173.48-2.52L173.48-2.52L173.48-2.52Q174.40-1.12 176.32-1.12L176.32-1.12L176.32-1.12Q178.24-1.12 180.24-3.20L180.24-3.20L180.24-3.20Q182.88-5.92 184.48-10.08L184.48-10.08L184.48-10.08Q184.72-11.12 185.40-15.08L185.40-15.08L185.40-15.08Q186.08-19.04 186.56-21.60L186.56-21.60L186.56-21.60Q186.32-24.64 184.88-26.88L184.88-26.88L184.88-26.88Q183.44-29.12 181.28-29.12L181.28-29.12L181.28-29.12Q177.36-29.12 174.96-22.12L174.96-22.12L174.96-22.12Q172.56-15.12 172.56-7.52L172.56-7.52" fill="#182731" stroke="none" stroke-width="none" transform="translate(-152.16000366210938,20.892399101257325)" style="fill: rgb(24, 39, 49);"></path></g><g class="path" style="opacity: 1; transform-origin: 68.28px 5.6924px; animation: 1s linear -0.165s infinite normal forwards running blink-e3abcb22-0e74-4459-ae39-8938016bdc75;"><path d="M233.20-0.88L233.20-0.88L233.20-0.88Q235.12-0.88 237.20-3.12L237.20-3.12L238.40-2.16L238.40-2.16Q237.84-1.04 235.92-0.16L235.92-0.16L235.92-0.16Q234 0.72 231.68 0.72L231.68 0.72L231.68 0.72Q224.40 0.72 224.40-5.84L224.40-5.84L224.40-5.84Q224.40-8.64 225.84-15.84L225.84-15.84L225.84-15.84Q227.28-23.04 227.28-25.28L227.28-25.28L227.28-25.28Q227.28-28.72 224-28.72L224-28.72L224-28.72Q221.36-28.72 218.92-25.28L218.92-25.28L218.92-25.28Q216.48-21.84 214.88-15.84L214.88-15.84L212.16-0.88L212.16-0.88Q214.64-1.12 216.24-3.12L216.24-3.12L217.44-2.16L217.44-2.16Q215.04 0.72 211.44 0.72L211.44 0.72L211.44 0.72Q207.84 0.72 205.80-1.12L205.80-1.12L205.80-1.12Q203.76-2.96 203.76-5.92L203.76-5.92L203.76-5.92Q203.76-7.04 205.04-14.72L205.04-14.72L207.68-29.52L207.68-29.52Q205.28-29.28 203.68-27.28L203.68-27.28L202.48-28.24L202.48-28.24Q204.88-31.12 208.52-31.12L208.52-31.12L208.52-31.12Q212.16-31.12 214.16-29.28L214.16-29.28L214.16-29.28Q216.16-27.44 216.16-24.08L216.16-24.08L216.16-23.60L216.16-23.60Q219.44-31.12 226.40-31.12L226.40-31.12L226.40-31.12Q231.12-31.12 233.76-28.44L233.76-28.44L233.76-28.44Q236.40-25.76 236.40-21.04L236.40-21.04L236.40-21.04Q236.40-18.56 234.88-11.48L234.88-11.48L234.88-11.48Q233.36-4.40 233.20-0.88" fill="#182731" stroke="none" stroke-width="none" transform="translate(-152.16000366210938,20.892399101257325)" style="fill: rgb(24, 39, 49);"></path></g><g class="path" style="opacity: 1; transform-origin: 108.12px -4.6676px; animation: 1s linear -0.0825s infinite normal forwards running blink-e3abcb22-0e74-4459-ae39-8938016bdc75;"><path d="M269.92 0.72L269.92 0.72L269.92 0.72Q262.88 0.72 262.24-5.28L262.24-5.28L262.24-5.28Q258.72 0.72 253.28 0.72L253.28 0.72L253.28 0.72Q247.84 0.72 244.96-2.36L244.96-2.36L244.96-2.36Q242.08-5.44 242.08-10.80L242.08-10.80L242.08-10.80Q242.08-20.24 246.56-25.68L246.56-25.68L246.56-25.68Q251.04-31.12 258.16-31.12L258.16-31.12L258.16-31.12Q262.24-31.12 264.48-28.64L264.48-28.64L264.48-28.64Q265.44-27.36 265.68-26.72L265.68-26.72L270-50.24L270-50.24Q267.60-50 266-48L266-48L264.80-48.96L264.80-48.96Q267.20-51.84 270.84-51.84L270.84-51.84L270.84-51.84Q274.48-51.84 276.48-50L276.48-50L276.48-50Q278.48-48.16 278.48-44.80L278.48-44.80L278.48-44.80Q278.48-44.16 278.32-42.72L278.32-42.72L278.32-42.72Q274.40-20.72 270.72-0.88L270.72-0.88L270.72-0.88Q273.12-1.12 274.72-3.12L274.72-3.12L275.92-2.16L275.92-2.16Q273.52 0.72 269.92 0.72zM251.12-7.52L251.12-7.52Q251.12-3.84 251.88-2.48L251.88-2.48L251.88-2.48Q252.64-1.12 254.28-1.12L254.28-1.12L254.28-1.12Q255.92-1.12 257.44-2.24L257.44-2.24L257.44-2.24Q258.96-3.36 260-5.12L260-5.12L260-5.12Q261.92-8.08 262.72-10.16L262.72-10.16L265.04-22.80L265.04-22.80Q264.88-25.36 263.36-27.48L263.36-27.48L263.36-27.48Q261.84-29.60 258.16-29.60L258.16-29.60L258.16-29.60Q255.60-29.60 253.36-22.08L253.36-22.08L253.36-22.08Q251.12-14.56 251.12-7.52L251.12-7.52" fill="#182731" stroke="none" stroke-width="none" transform="translate(-152.16000366210938,20.892399101257325)" style="fill: rgb(24, 39, 49);"></path></g><g class="path" style="opacity: 1; transform-origin: 143.84px 5.6924px; animation: 1s linear 0s infinite normal forwards running blink-e3abcb22-0e74-4459-ae39-8938016bdc75;"><path d="M292.88 0.72L292.88 0.72Q286.72 0.72 283.52-2.36L283.52-2.36L283.52-2.36Q280.32-5.44 280.32-10.12L280.32-10.12L280.32-10.12Q280.32-14.80 281.16-18.12L281.16-18.12L281.16-18.12Q282-21.44 283.92-24.52L283.92-24.52L283.92-24.52Q285.84-27.60 289.72-29.36L289.72-29.36L289.72-29.36Q293.60-31.12 299.40-31.12L299.40-31.12L299.40-31.12Q305.20-31.12 308.44-28.04L308.44-28.04L308.44-28.04Q311.68-24.96 311.68-19.60L311.68-19.60L311.68-19.60Q311.68-10.48 306.84-4.88L306.84-4.88L306.84-4.88Q302 0.72 292.88 0.72L292.88 0.72zM289.36-7.52L289.36-7.52L289.36-7.52Q289.36-1.12 293.08-1.12L293.08-1.12L293.08-1.12Q296.80-1.12 299.72-7.56L299.72-7.56L299.72-7.56Q302.64-14 302.64-22.88L302.64-22.88L302.64-22.88Q302.64-29.60 299-29.60L299-29.60L299-29.60Q295.36-29.60 292.36-23.48L292.36-23.48L292.36-23.48Q289.36-17.36 289.36-7.52" fill="#182731" stroke="none" stroke-width="none" transform="translate(-152.16000366210938,20.892399101257325)" style="fill: rgb(24, 39, 49);"></path></g></g>
</g>
</g>
<style id="blink-e3abcb22-0e74-4459-ae39-8938016bdc75" data-anikit="">@keyframes blink-e3abcb22-0e74-4459-ae39-8938016bdc75 {
  0% { opacity: 1; }
  49.75% { opacity: 1; }
  50.25% { opacity: 0; }
  99.5% { opacity: 0; }
  100% { opacity: 1; }
}</style></svg>